<?xml version="1.0" encoding="utf-8"?>
<!-- Generator: Adobe Illustrator 24.1.2, SVG Export Plug-In . SVG Version: 6.00 Build 0)  -->
<svg version="1.1" id="Layer_1" xmlns="http://www.w3.org/2000/svg" xmlns:xlink="http://www.w3.org/1999/xlink" x="0px" y="0px"
	 viewBox="0 0 45 45" style="enable-background:new 0 0 45 45;" xml:space="preserve">
<style type="text/css">
	.st0{fill:#4C4C4C;}
</style>
<g>
	<path class="st0" d="M1.5,21.7c0.1-0.8,0.2-1.5,0.3-2.3c0.5-3,1.6-5.7,3.3-8.2c2.6-3.8,6.1-6.4,10.4-8c2.9-1,5.9-1.3,9-1
		c3.8,0.4,7.3,1.7,10.4,4c3.8,2.8,6.3,6.5,7.6,10.9c0.9,2.9,1,5.8,0.6,8.8c-0.8,5.9-3.7,10.5-8.4,14.1c-1.7,1.3-3.6,2.2-5.6,2.9
		c-0.9,0.3-1.6-0.1-1.6-1.1c0-1.8,0-3.6,0-5.4c0-0.9-0.1-1.8-0.4-2.6c-0.2-0.5-0.6-0.9-0.8-1.4c0.8-0.1,1.6-0.2,2.4-0.5
		c2.1-0.6,4.1-1.5,5.3-3.4c0.9-1.4,1.4-2.9,1.6-4.6c0.1-1.2,0.2-2.5,0-3.7c-0.3-1.4-0.9-2.6-1.8-3.6c-0.2-0.2-0.2-0.3-0.1-0.6
		c0.6-1.7,0.4-3.4-0.3-5.1c0-0.1-0.2-0.2-0.3-0.2c-0.7-0.1-1.4,0.1-2.1,0.4c-1.1,0.5-2.1,1.1-3.1,1.6c-0.2,0.1-0.4,0.2-0.6,0.1
		c-3.3-0.8-6.5-0.8-9.8,0c-0.2,0-0.5,0-0.6-0.1c-1.3-0.8-2.7-1.5-4.3-1.9c0,0-0.1,0-0.1,0c-1-0.2-1.2-0.1-1.4,0.9
		c-0.4,1.5-0.5,3,0,4.5c0,0.1,0,0.3-0.1,0.4c-1.8,2-2.2,4.4-1.9,6.9c0.1,1.5,0.5,2.9,1.2,4.3c0.9,1.9,2.5,3.1,4.5,3.7
		c1.1,0.4,2.4,0.6,3.6,0.8c0.1,0,0.1,0,0.1,0c-0.3,0.6-0.6,1.1-0.9,1.7c-0.1,0.2-0.2,0.4-0.2,0.6c0,0.4-0.2,0.6-0.7,0.8
		c-1.3,0.4-2.6,0.6-3.9-0.2c-0.7-0.4-1.2-1-1.6-1.7c-0.6-1-1.5-1.8-2.6-2.1c-0.4-0.1-0.9-0.1-1.4-0.1c-0.3,0-0.4,0.2-0.2,0.5
		c0.2,0.2,0.4,0.5,0.6,0.6c1.1,0.7,1.8,1.7,2.3,2.8c0.3,0.6,0.6,1.3,1.1,1.8c0.9,0.8,1.9,1.1,3.1,1.1c1,0,2,0,3,0c0,0.6,0,1.3,0,2
		c0,0.5,0,1.1,0,1.6c0,1-0.6,1.5-1.6,1.1c-3.1-1.1-5.8-2.7-8.1-5.1c-2.2-2.3-3.9-4.9-5-7.9c-0.6-1.7-0.9-3.5-1.1-5.3
		c0-0.2,0-0.3-0.1-0.5C1.5,23.3,1.5,22.5,1.5,21.7z"/>
</g>
</svg>
